<?xml version="1.0" encoding="UTF-8"?><svg id="Calque_1" xmlns="http://www.w3.org/2000/svg" viewBox="0 0 384.04 64.06"><defs></defs><path class="cls-1" d="M233.29.01c-8.93,0-16.3,2.92-21.31,8.45-5.01,5.54-7.67,13.69-7.67,23.57s2.64,18.03,7.67,23.57c5.01,5.53,12.37,8.45,21.31,8.45s16.3-2.92,21.31-8.45c5.01-5.54,7.67-13.69,7.67-23.57s-2.64-18.03-7.67-23.57C249.6,2.94,242.24.01,233.29.01ZM233.29,54.97c-10.71,0-17.1-8.57-17.1-22.93s6.39-22.93,17.1-22.93,17.1,8.57,17.1,22.93-6.39,22.93-17.1,22.93ZM364.66.86h-20.38l-19.37,62.34h11.44l4.31-15.13h27.64l4.31,15.13h11.44L364.66.86h0ZM343.22,39.24l10.78-37.51h.97l10.78,37.51h-22.52,0ZM296.53,38.05v-.39c7.15,0,13.15-1.74,17.15-5.04,3.99-3.3,6.1-8.14,6.1-14.04,0-11.09-8.74-17.72-23.39-17.72h-24.16v62.34h11.44v-25.37h10.23l13.61,25.37h12.77l-9.29-16.41c-3.07-5.47-7.53-8.74-14.47-8.74h0ZM283.79,29.51h-.11V9.67h13.3c6.84,0,10.94,3.64,10.94,9.75s-4.09,10.08-10.94,10.08h-13.19ZM166.59,29.51h27.76v33.68h-10.76v-14.14h-.39c-.49,1.74-4.07,14.97-20.79,14.97-7.32,0-13.46-2.92-17.49-8.44-4.07-5.57-6.22-13.73-6.22-23.57s2.63-18.03,7.61-23.57c4.98-5.53,12.3-8.45,21.19-8.45,13.65,0,23.36,7.65,26.14,20.62h-11.13c-2.23-7.29-7.8-11.55-15-11.55-10.66,0-17.02,8.57-17.02,22.93s6.23,22.93,16.68,22.93c4.74,0,8.72-1.54,11.49-4.48,2.75-2.91,4.19-7.47,4.53-12.65h-16.6v-8.32h0ZM54.34.86h14.54v62.33h-11.44V7.11h-.97l-11.24,56.1h-21.58L12.41,7.11h-.97v56.1H0V.88h22.63l11.33,61.47h.97l8.98-48.75c1.24-6.43,3.49-12.72,10.43-12.72h0ZM95.75.86l-19.37,62.34h11.44l4.31-15.13h27.64l4.31,15.13h11.44L116.13.86h-20.38ZM94.68,39.24L105.46,1.73h.97l10.78,37.51h-22.52Z"></path></svg>